<svg width="171" height="183" viewBox="0 0 171 183" fill="none" xmlns="http://www.w3.org/2000/svg">
<path d="M154.11 129.7H151.751V130.495L152.242 131.125L154.11 129.7ZM110.414 148.014C109.482 148.914 109.464 150.392 110.374 151.312C111.284 152.235 112.778 152.252 113.71 151.352L110.414 148.014ZM105.141 180.459C105.512 181.694 106.825 182.4 108.074 182.033C109.323 181.667 110.035 180.369 109.665 179.134L105.141 180.459ZM66.6857 67.2183L66.3363 69.5251L69.8541 70.0462L68.9709 66.639L66.6857 67.2183ZM142.798 59.3978C147.321 61.9187 150.784 67.1495 152.844 72.7909C153.859 75.5714 154.493 78.3467 154.747 80.7626C155.006 83.2326 154.845 85.1183 154.458 86.2311L158.919 87.7487C159.628 85.7112 159.73 83.0467 159.44 80.2812C159.144 77.4618 158.417 74.3166 157.28 71.2065C155.039 65.0666 151.039 58.6356 145.114 55.3335L142.798 59.3978ZM154.458 86.2311C153.796 88.1331 153.234 89.4875 152.782 90.5241C152.361 91.4896 151.931 92.3977 151.666 93.1367C151.355 93.9983 151.176 94.8458 151.228 95.8785C151.273 96.8202 151.509 97.8195 151.838 98.9791L156.381 97.7187C156.065 96.6066 155.958 96.0345 155.94 95.6509C155.925 95.3585 155.958 95.1268 156.111 94.7011C156.308 94.1528 156.594 93.5652 157.114 92.3724C157.604 91.2508 158.212 89.7844 158.919 87.7487L154.458 86.2311ZM157.271 114.708C155.493 115.126 154.175 116.017 153.441 117.316C152.747 118.544 152.776 119.783 152.915 120.561L157.562 119.755C157.539 119.625 157.568 119.576 157.559 119.592C157.55 119.609 157.557 119.581 157.641 119.523C157.734 119.46 157.947 119.345 158.361 119.247L157.271 114.708ZM155.508 123.616C155.47 123.8 155.336 124.128 155.034 124.607C154.742 125.066 154.369 125.55 153.96 126.041C153.759 126.284 153.557 126.517 153.359 126.747C153.168 126.97 152.966 127.203 152.791 127.415C152.625 127.618 152.428 127.866 152.266 128.116C152.184 128.242 152.077 128.419 151.984 128.629C151.905 128.809 151.751 129.198 151.751 129.7H156.469C156.469 130.126 156.34 130.422 156.309 130.494C156.263 130.597 156.226 130.651 156.233 130.64C156.248 130.617 156.308 130.534 156.451 130.361C156.585 130.197 156.749 130.007 156.952 129.771C157.147 129.544 157.372 129.282 157.604 129.004C158.062 128.454 158.583 127.792 159.033 127.083C159.47 126.392 159.923 125.528 160.125 124.576L155.508 123.616ZM152.242 131.125C152.27 131.159 152.336 131.258 152.4 131.403C152.464 131.545 152.507 131.69 152.525 131.821C152.542 131.948 152.533 132.042 152.514 132.111C152.497 132.172 152.461 132.264 152.347 132.389L155.872 135.492C157.113 134.114 157.38 132.529 157.201 131.206C157.035 129.965 156.483 128.922 155.977 128.275L152.242 131.125ZM147.277 137.244C147.413 137.963 147.681 138.888 147.821 139.46C147.99 140.145 148.097 140.735 148.104 141.295C148.117 142.245 147.857 143.38 146.268 144.758L149.379 148.265C151.981 146.008 152.851 143.582 152.822 141.238C152.808 140.153 152.604 139.161 152.406 138.355C152.178 137.436 152.023 136.961 151.916 136.392L147.277 137.244ZM146.268 144.758C146.288 144.741 146.057 144.924 145.175 145.025C144.349 145.12 143.251 145.112 141.871 145.017C139.025 144.821 135.764 144.331 131.911 143.95C128.212 143.583 124.199 143.35 120.494 143.795C116.798 144.238 113.137 145.385 110.414 148.014L113.71 151.352C115.392 149.729 117.88 148.807 121.062 148.426C124.233 148.045 127.825 148.233 131.441 148.592C134.903 148.935 138.67 149.472 141.543 149.671C143.024 149.773 144.461 149.803 145.717 149.659C146.915 149.522 148.314 149.19 149.379 148.265L146.268 144.758ZM145.114 55.3335C143.763 54.5804 142.305 54.5924 141.017 54.9289C139.763 55.2565 138.519 55.924 137.339 56.7239C134.975 58.3257 132.354 60.8156 129.67 63.6222C126.967 66.4503 124.078 69.732 121.195 72.9828C118.296 76.2524 115.395 79.4994 112.609 82.3357L115.994 85.5861C118.875 82.6527 121.85 79.3202 124.742 76.0585C127.652 72.7776 130.471 69.576 133.099 66.8272C135.748 64.0567 138.082 61.8761 140.006 60.5722C140.97 59.9192 141.703 59.5749 142.222 59.4394C142.469 59.3749 142.621 59.3699 142.701 59.3756C142.769 59.3805 142.789 59.393 142.798 59.3978L145.114 55.3335ZM112.609 82.3357C106.459 88.597 104.169 94.5205 103.03 98.7216C102.75 99.7538 102.541 100.678 102.368 101.431C102.187 102.222 102.063 102.749 101.939 103.128C101.789 103.589 101.768 103.397 102.062 103.145C102.269 102.966 102.567 102.815 102.917 102.771C103.233 102.732 103.445 102.8 103.489 102.815L101.906 107.21C102.337 107.362 102.888 107.477 103.504 107.4C104.154 107.32 104.714 107.046 105.155 106.667C105.917 106.012 106.253 105.1 106.429 104.561C106.632 103.941 106.804 103.189 106.97 102.46C107.145 101.695 107.335 100.859 107.587 99.9299C108.575 96.2857 110.54 91.138 115.994 85.5861L112.609 82.3357ZM103.489 102.815C102.993 102.641 102.47 102.286 101.811 101.622C101.122 100.927 100.473 100.097 99.5737 99.0107C97.8446 96.9216 95.5532 94.3446 91.7678 92.5998L89.7746 96.8283C92.5607 98.1125 94.2985 100.003 95.9227 101.965C96.7001 102.905 97.5585 103.996 98.4418 104.888C99.355 105.809 100.468 106.703 101.906 107.21L103.489 102.815ZM91.7678 92.5998C89.127 91.3826 86.4811 91.8236 84.4017 92.847C82.3598 93.8518 80.6758 95.4932 79.6567 97.1212L83.6683 99.5765C84.2609 98.6299 85.3066 97.6127 86.504 97.0235C87.6638 96.4527 88.7662 96.3635 89.7746 96.8283L91.7678 92.5998ZM79.6567 97.1212C78.8904 98.3452 78.7102 99.9127 78.7369 101.4C78.7651 102.966 79.0346 104.826 79.501 106.916C80.4356 111.104 82.2255 116.5 84.8174 122.849L89.1924 121.102C86.6518 114.879 84.9645 109.749 84.1082 105.911C83.679 103.987 83.4746 102.459 83.4541 101.317C83.444 100.75 83.4803 100.321 83.5382 100.013C83.5665 99.8621 83.5977 99.7529 83.6244 99.6786C83.651 99.6041 83.6693 99.575 83.6683 99.5765L79.6567 97.1212ZM152.915 120.561C153.019 121.148 153.29 121.596 153.463 121.848C153.652 122.124 153.865 122.367 154.04 122.555C154.219 122.747 154.414 122.94 154.577 123.102C154.751 123.276 154.902 123.426 155.046 123.577L158.477 120.374C158.282 120.17 158.084 119.973 157.922 119.812C157.749 119.641 157.619 119.511 157.512 119.396C157.401 119.277 157.366 119.228 157.368 119.231C157.372 119.236 157.401 119.278 157.436 119.352C157.471 119.426 157.527 119.563 157.562 119.755L152.915 120.561ZM155.046 123.577C155.181 123.717 155.289 123.838 155.374 123.945C155.461 124.053 155.508 124.124 155.529 124.161C155.551 124.2 155.528 124.17 155.507 124.079C155.483 123.978 155.467 123.813 155.508 123.616L160.125 124.576C160.364 123.451 159.993 122.494 159.644 121.878C159.295 121.264 158.83 120.744 158.477 120.374L155.046 123.577ZM152.347 132.389C152.249 132.5 152.078 132.618 151.451 132.726L152.256 137.322C153.187 137.163 154.684 136.81 155.872 135.492L152.347 132.389ZM151.451 132.726C151.315 132.749 151.176 132.769 151.012 132.793C150.858 132.815 150.667 132.842 150.481 132.874C150.138 132.932 149.582 133.04 149.039 133.309C148.422 133.615 147.779 134.153 147.432 135.024C147.117 135.815 147.158 136.607 147.277 137.244L151.916 136.392C151.883 136.209 151.956 136.396 151.823 136.733C151.751 136.913 151.638 137.084 151.495 137.228C151.359 137.365 151.23 137.441 151.154 137.479C151.083 137.514 151.049 137.521 151.079 137.512C151.11 137.504 151.169 137.49 151.28 137.471C151.394 137.452 151.518 137.434 151.691 137.41C151.852 137.387 152.049 137.358 152.256 137.322L151.451 132.726ZM151.838 98.9791C152.352 100.787 153.489 102.745 154.611 104.467C155.736 106.194 157.074 108.017 157.996 109.356L161.896 106.728C160.841 105.198 159.671 103.62 158.578 101.941C157.48 100.255 156.688 98.8013 156.381 97.7187L151.838 98.9791ZM157.996 109.356C158.558 110.17 158.968 110.806 159.215 111.272C159.272 111.382 159.315 111.469 159.342 111.536C159.373 111.604 159.383 111.635 159.383 111.635C159.381 111.633 159.377 111.618 159.372 111.591C159.366 111.564 159.359 111.518 159.354 111.456C159.345 111.342 159.342 111.111 159.435 110.823L163.934 112.227C164.191 111.424 164.02 110.694 163.911 110.324C163.782 109.891 163.587 109.474 163.396 109.112C163.011 108.384 162.465 107.554 161.896 106.728L157.996 109.356ZM159.435 110.823C159.245 111.415 159.1 111.953 158.857 112.591C158.622 113.207 158.361 113.727 158.069 114.108L161.824 116.931C163.115 115.252 163.69 112.992 163.934 112.227L159.435 110.823ZM158.069 114.108C157.763 114.504 157.504 114.653 157.271 114.708L158.361 119.247C159.947 118.875 161.065 117.919 161.824 116.931L158.069 114.108ZM160.769 155.717C160.867 155.594 160.838 155.707 160.311 155.902C159.828 156.081 159.129 156.254 158.182 156.406C156.292 156.71 153.768 156.885 150.753 157.018C144.826 157.277 137.145 157.368 129.927 158.133C122.77 158.891 115.542 160.349 110.6 163.634C108.069 165.317 106.044 167.538 105.007 170.452C103.972 173.361 104.015 176.701 105.141 180.459L109.665 179.134C108.745 176.066 108.831 173.762 109.458 172C110.083 170.244 111.337 168.766 113.232 167.506C117.141 164.908 123.347 163.522 130.43 162.771C137.452 162.028 144.817 161.948 150.963 161.678C153.985 161.545 156.755 161.363 158.943 161.011C160.036 160.834 161.071 160.602 161.961 160.274C162.806 159.961 163.787 159.467 164.474 158.605L160.769 155.717ZM84.8174 122.849C87.4244 129.234 90.8138 137.806 90.7422 144.995C90.7073 148.516 89.8387 151.44 87.8747 153.609C85.9176 155.771 82.5674 157.516 76.8647 158.065L77.3213 162.708C83.7887 162.087 88.4041 160.017 91.3893 156.721C94.3674 153.434 95.418 149.258 95.4599 145.04C95.5425 136.752 91.7179 127.288 89.1924 121.102L84.8174 122.849ZM165.953 75.1451C166.558 88.6719 166.314 107.645 165.332 123.967C164.84 132.129 164.167 139.585 163.331 145.341C162.913 148.222 162.459 150.635 161.982 152.476C161.474 154.431 161.019 155.404 160.769 155.717L164.474 158.605C165.4 157.445 166.042 155.595 166.551 153.637C167.088 151.565 167.57 148.969 168.001 146.004C168.863 140.066 169.546 132.469 170.041 124.245C171.032 107.793 171.28 88.6564 170.667 74.9387L165.953 75.1451ZM76.8647 158.065C51.7972 160.474 33.8215 155.171 22.1352 146.373C10.4566 137.58 4.85164 125.153 4.72033 112.822C4.58882 100.472 9.94762 88.1982 20.2848 79.7397C30.5952 71.303 46.0435 66.5193 66.3363 69.5251L67.0353 64.9113C45.6247 61.7399 28.7721 66.7393 17.2769 76.1454C5.80829 85.5298 -0.143389 99.159 0.00262324 112.871C0.148838 126.602 6.40939 140.396 19.2771 150.084C32.1371 159.766 51.3883 165.201 77.3213 162.708L76.8647 158.065ZM68.9709 66.639C63.8547 46.9039 67.2738 31.7637 74.9581 21.5554C82.6648 11.3174 94.8828 5.7367 107.971 5.54076C133.948 5.15182 163.761 26.1605 165.953 75.1451L170.667 74.9387C168.382 23.8921 136.87 0.442298 107.899 0.876022C93.5129 1.0914 79.8508 7.24235 71.1735 18.7698C62.474 30.3269 59.0054 46.9859 64.4007 67.7975L68.9709 66.639Z" fill="#DA2864"/>
</svg>
