<svg width="390" height="53" viewBox="0 0 390 53" fill="none" xmlns="http://www.w3.org/2000/svg">
<path d="M59.157 33.3137C58.9492 35.8319 58.201 38.0817 56.9123 40.0632C55.6237 42.0034 53.9194 43.6546 51.7994 45.0169C50.3861 45.8838 48.8689 46.6681 47.2477 47.3699C45.6265 48.0717 44.0054 48.6083 42.3842 48.9799C40.9293 49.3101 39.4952 49.4546 38.0819 49.4133C36.7101 49.372 35.3176 49.2688 33.9042 49.1037C33.5717 49.4752 33.156 49.7229 32.6572 49.8468C32.1999 50.0119 31.7427 50.0325 31.2854 49.9087C30.3293 49.661 29.7474 49.0624 29.5396 48.113C29.0407 47.6176 28.7913 47.019 28.7913 46.3172C28.7913 45.4091 29.207 44.6866 30.0384 44.15C30.2878 42.4988 30.4748 40.8475 30.5995 39.1963C30.7658 37.545 30.8905 35.8732 30.9737 34.1806C31.0984 32.1992 31.2023 30.2383 31.2854 28.2981C31.3686 26.3579 31.3893 24.3971 31.3478 22.4156C31.3478 21.1771 31.3062 19.8974 31.2231 18.5764C31.1399 17.2554 31.0984 15.9551 31.0984 14.6754C31.0984 13.3544 31.1607 12.054 31.2854 10.7743C31.4517 9.49462 31.7635 8.25619 32.2207 7.05905C32.0129 6.39855 32.0544 5.71741 32.3454 5.01564C32.6364 4.31386 33.1976 3.88041 34.0289 3.71529C34.5278 3.17863 35.1097 2.93095 35.7748 2.97223C36.4815 3.01351 37.0634 3.24056 37.5207 3.65337C39.5575 3.81849 41.532 4.21066 43.4442 4.82987C45.3979 5.40781 47.1853 6.35727 48.8065 7.67826C50.8018 9.24694 52.4022 11.1459 53.6077 13.375C54.8131 15.5629 55.79 17.8334 56.5382 20.1864C56.8708 21.2184 57.2033 22.2711 57.5359 23.3444C57.91 24.4177 58.2218 25.5116 58.4712 26.6262C58.7621 27.7408 58.97 28.8554 59.0947 29.97C59.2194 31.0846 59.2402 32.1992 59.157 33.3137ZM48.7442 41.0539C49.2845 40.7237 49.7626 40.3934 50.1783 40.0632C50.6355 39.7329 51.0928 39.3408 51.55 38.8867C51.9241 38.4739 52.2151 38.1436 52.423 37.8959C52.6308 37.6482 52.8802 37.2767 53.1712 36.7813C53.8779 35.3365 54.2104 33.7059 54.1688 31.8895C54.1688 30.8575 54.0857 29.9081 53.9194 29.0412C53.7531 28.133 53.5037 27.1216 53.1712 26.007C52.8386 24.8511 52.4853 23.7159 52.1112 22.6013C51.7786 21.4455 51.3837 20.3309 50.9265 19.2576C50.5939 18.3494 50.1367 17.3793 49.5547 16.3473C49.0144 15.274 48.4532 14.3864 47.8712 13.6846C46.4163 11.9508 44.7744 10.7124 42.9454 9.96935C41.1164 9.18502 39.1211 8.73092 36.9595 8.60708C36.5023 9.76295 36.2113 10.9807 36.0866 12.2604C36.0034 13.4989 35.9827 14.7579 36.0242 16.0377C36.0658 17.3174 36.1281 18.5971 36.2113 19.8768C36.336 21.1565 36.3776 22.3949 36.336 23.5921C36.1697 27.101 36.0034 30.5686 35.8372 33.9949C35.7125 37.4212 35.4215 40.8682 34.9642 44.3358C35.7125 44.4183 36.4607 44.4802 37.2089 44.5215C37.9987 44.5628 38.7677 44.5422 39.516 44.4596C41.0956 44.2945 42.6752 43.9023 44.2548 43.2831C45.8759 42.6226 47.3724 41.8795 48.7442 41.0539Z" fill="#DA2864"/>
<path d="M80.1075 20.0625C81.4377 19.8974 82.8302 19.8561 84.2851 19.9387C85.74 19.98 87.1326 20.2277 88.4628 20.6818C89.793 21.0946 90.9984 21.7344 92.0792 22.6013C93.16 23.4682 93.9914 24.6035 94.5733 26.007C94.989 26.9978 95.1969 28.0091 95.1969 29.0412C95.2384 30.0319 95.0929 31.002 94.7604 31.9515C94.4694 32.8596 94.0122 33.7472 93.3886 34.6141C92.8067 35.4397 92.1208 36.2034 91.331 36.9052C89.6267 38.4326 87.7561 39.7329 85.7193 40.8062C83.6824 41.8795 81.5416 42.7052 79.2969 43.2831C78.3409 43.5308 77.3432 43.7578 76.304 43.9642C75.3064 44.1294 74.2879 44.2119 73.2487 44.2119C72.2095 44.2119 71.1911 44.1087 70.1935 43.9023C69.1958 43.6546 68.2605 43.2625 67.3876 42.7258C66.7641 42.3543 66.3899 41.8589 66.2652 41.2397C66.0158 40.5379 65.7456 39.8774 65.4547 39.2582C65.1637 38.639 64.8727 37.9991 64.5817 37.3386C64.3323 36.6781 64.1245 36.0176 63.9582 35.3571C63.7919 34.6967 63.7088 34.0155 63.7088 33.3137C63.7088 31.9102 63.9998 30.5892 64.5817 29.3508C65.2052 28.0711 66.0366 26.9565 67.0758 26.007C68.8217 24.3558 70.8378 23.0348 73.124 22.044C75.4103 21.0533 77.7381 20.3928 80.1075 20.0625ZM87.1534 25.3878C86.031 24.975 84.8255 24.7686 83.5369 24.7686C82.1652 24.7273 80.7934 24.8718 79.4216 25.202C78.0499 25.491 76.7405 25.9038 75.4934 26.4405C74.3295 26.8946 73.124 27.5344 71.877 28.36C70.6715 29.1444 69.7778 30.1145 69.1958 31.2703C68.8633 31.8895 68.697 32.5294 68.697 33.1899C68.7386 33.8091 68.8425 34.449 69.0088 35.1095C69.2166 35.7287 69.466 36.3685 69.757 37.029C70.0895 37.6482 70.3805 38.2675 70.6299 38.8867C71.295 39.0518 71.7107 39.1344 71.877 39.1344C71.9601 39.1756 72.064 39.1963 72.1887 39.1963C72.3134 39.1963 72.4174 39.1963 72.5005 39.1963C73.3319 39.2788 74.0801 39.2582 74.7452 39.1344C75.2024 39.1344 75.7844 39.0518 76.4911 38.8867C77.5718 38.6803 78.6111 38.4119 79.6087 38.0817C80.6063 37.7102 81.5208 37.318 82.3522 36.9052C83.3083 36.4511 84.2436 35.9557 85.1581 35.4191C86.0726 34.8824 86.8416 34.3251 87.4651 33.7472C87.8808 33.3757 88.2757 32.9835 88.6498 32.5707C88.8577 32.3643 89.0032 32.1992 89.0863 32.0753C89.2941 31.7863 89.4604 31.5799 89.5851 31.4561C89.7098 31.291 89.8137 31.1052 89.8969 30.8988C90.0632 30.6098 90.1463 30.3828 90.1463 30.2177C90.1879 30.1351 90.2086 30.0319 90.2086 29.9081C90.2502 29.7842 90.2918 29.681 90.3334 29.5985V28.9173C90.2918 28.7522 90.271 28.6284 90.271 28.5458C90.271 28.4632 90.2502 28.3807 90.2086 28.2981C90.0839 28.0091 89.9592 27.8027 89.8345 27.6789C89.7514 27.5138 89.6475 27.3486 89.5228 27.1835C89.5643 27.2248 89.502 27.1629 89.3357 26.9978C89.211 26.8326 89.1279 26.7294 89.0863 26.6881L88.5875 26.1928C88.3796 26.0689 88.151 25.9244 87.9016 25.7593C87.6522 25.5942 87.4028 25.4704 87.1534 25.3878Z" fill="#DA2864"/>
<path d="M99.4368 42.6639C99.4368 40.8888 99.5615 39.0931 99.8109 37.2767C100.102 35.0888 100.393 32.9216 100.684 30.775C100.975 28.5871 101.1 26.3785 101.058 24.1494C101.058 23.365 101.307 22.7665 101.806 22.3536C102.305 21.9408 102.866 21.7344 103.49 21.7344C104.113 21.7344 104.695 21.9408 105.236 22.3536C105.776 22.7665 106.046 23.365 106.046 24.1494C107.667 24.0255 109.205 23.9636 110.66 23.9636C112.323 24.0049 113.736 24.4796 114.9 25.3878C116.064 26.296 116.937 27.5138 117.519 29.0412C118.018 30.4447 118.309 31.8895 118.392 33.3757C118.475 34.8618 118.538 36.3479 118.579 37.834C118.621 39.9393 118.683 42.0447 118.766 44.15C118.849 46.214 118.891 48.2987 118.891 50.4041C118.891 51.2297 118.621 51.8283 118.08 52.1998C117.581 52.6126 117.02 52.819 116.397 52.819C115.815 52.819 115.254 52.6126 114.713 52.1998C114.214 51.8283 113.965 51.2297 113.965 50.4041C113.965 48.4226 113.923 46.4824 113.84 44.5834C113.799 42.6845 113.736 40.7443 113.653 38.7628C113.57 37.6895 113.529 36.5956 113.529 35.481C113.57 34.3251 113.487 33.2725 113.279 32.323C113.154 31.7451 113.03 31.2497 112.905 30.8369C112.78 30.3828 112.552 29.9493 112.219 29.5365C112.136 29.3714 111.949 29.2269 111.658 29.1031C111.409 28.9792 111.18 28.9173 110.972 28.9173C110.349 28.9173 109.767 28.9586 109.226 29.0412C108.686 29.1237 108.125 29.2476 107.543 29.4127C107.293 29.4953 107.044 29.5778 106.794 29.6604C106.545 29.7429 106.316 29.8461 106.109 29.97C105.693 31.4561 105.381 32.8803 105.173 34.2426C105.007 35.5636 104.841 36.9052 104.674 38.2675C104.55 39.2582 104.467 40.2696 104.425 41.3016C104.425 42.2924 104.383 43.2831 104.3 44.2738C104.259 45.2646 104.134 46.2553 103.926 47.2461C103.76 48.2368 103.448 49.1863 102.991 50.0945C102.617 50.7962 102.118 51.1884 101.494 51.271C100.871 51.3948 100.289 51.2916 99.7486 50.9614C99.2498 50.6724 98.8549 50.2183 98.5639 49.5991C98.3145 48.9799 98.356 48.3194 98.6886 47.6176C99.0627 46.8745 99.2706 46.0696 99.3121 45.2027C99.3537 44.3358 99.3953 43.4895 99.4368 42.6639Z" fill="#DA2864"/>
<path d="M128.555 2.72454C129.137 2.51814 129.761 2.58006 130.426 2.91031C131.091 3.24056 131.486 3.75657 131.611 4.45834C131.819 5.57293 131.86 6.7288 131.735 7.92595C131.652 9.08181 131.424 10.217 131.05 11.3316C130.717 12.4049 130.281 13.4576 129.74 14.4896C129.241 15.5216 128.555 16.3885 127.683 17.0903C127.142 17.5444 126.539 17.7921 125.874 17.8334C125.251 17.8747 124.669 17.627 124.128 17.0903C123.671 16.6362 123.422 16.0583 123.38 15.3565C123.339 14.6547 123.588 14.0768 124.128 13.6227C124.71 13.1686 125.168 12.632 125.5 12.0128C125.833 11.3935 126.103 10.7124 126.311 9.96935C126.394 9.59783 126.477 9.2263 126.56 8.85477C126.685 8.48324 126.768 8.09107 126.81 7.67826C126.81 7.47186 126.81 7.26545 126.81 7.05905C126.851 6.85264 126.872 6.64624 126.872 6.43983L126.81 5.7587C126.685 5.05692 126.768 4.4377 127.059 3.90105C127.35 3.32312 127.849 2.93095 128.555 2.72454Z" fill="#DA2864"/>
<path d="M155.492 26.9978C156.282 26.9978 156.864 27.2454 157.238 27.7408C157.653 28.2362 157.861 28.7935 157.861 29.4127C157.861 30.0319 157.653 30.6098 157.238 31.1465C156.864 31.6419 156.282 31.8895 155.492 31.8895C154.494 31.9308 153.497 31.9308 152.499 31.8895C151.543 31.807 150.587 31.7244 149.631 31.6419C149.672 34.9031 149.61 38.1643 149.444 41.4254C149.319 44.6866 148.986 47.9272 148.446 51.1471C148.363 51.8489 147.989 52.3649 147.324 52.6952C146.659 53.0254 146.014 53.0873 145.391 52.8809C144.684 52.6745 144.185 52.2823 143.894 51.7044C143.645 51.1678 143.582 50.5485 143.707 49.8468C144.206 46.7094 144.476 43.5721 144.518 40.4347C144.601 37.2974 144.601 34.1394 144.518 30.9607C142.938 30.713 141.338 30.4654 139.717 30.2177C138.095 29.9287 136.495 29.681 134.915 29.4746C134.209 29.392 133.71 29.0205 133.419 28.36C133.086 27.6582 133.003 27.0184 133.17 26.4405C133.377 25.7387 133.772 25.264 134.354 25.0163C134.936 24.7273 135.56 24.6241 136.225 24.7067C137.597 24.9131 138.968 25.1401 140.34 25.3878C141.712 25.5942 143.104 25.8006 144.518 26.007C144.476 25.8006 144.455 25.491 144.455 25.0782C144.455 21.3629 144.435 17.6889 144.393 14.0562C144.393 10.4234 144.58 6.74944 144.954 3.03415C145.037 2.37366 145.287 1.79572 145.702 1.30035C146.16 0.804979 146.742 0.557293 147.448 0.557293C148.072 0.557293 148.654 0.804979 149.194 1.30035C149.776 1.79572 150.026 2.37366 149.942 3.03415C149.527 6.99712 149.319 10.9395 149.319 14.8611C149.36 18.7416 149.423 22.6839 149.506 26.6881C150.504 26.7707 151.501 26.8533 152.499 26.9358C153.497 26.9771 154.494 26.9978 155.492 26.9978Z" fill="#DA2864"/>
<path d="M182.989 26.7501C182.324 26.8326 181.742 26.6056 181.243 26.0689C180.786 25.5323 180.558 24.9543 180.558 24.3351C180.558 23.5921 180.786 23.0141 181.243 22.6013C181.742 22.1885 182.345 21.9408 183.052 21.8583C183.426 19.175 183.654 16.5124 183.738 13.8704C183.862 11.2284 183.966 8.5658 184.049 5.88254C183.509 5.71741 183.052 5.44909 182.678 5.07756C182.345 4.66475 182.179 4.14874 182.179 3.52952C182.179 2.91031 182.407 2.33237 182.865 1.79572C183.363 1.21779 183.966 0.970103 184.673 1.05266C186.211 1.21779 187.749 1.40355 189.287 1.60996C190.867 1.77508 192.425 2.00213 193.963 2.29109C195.543 2.58006 197.081 2.95159 198.577 3.40568C200.116 3.85977 201.57 4.4377 202.942 5.13948C203.898 5.59357 204.792 6.19215 205.623 6.9352C206.496 7.63698 207.203 8.44196 207.743 9.35014C208.325 10.217 208.679 11.1665 208.803 12.1985C208.97 13.2305 208.824 14.3039 208.367 15.4184C207.535 17.4412 206.392 19.1544 204.937 20.5579C203.524 21.9202 201.82 23.0141 199.825 23.8398C199.409 24.0462 198.993 24.2113 198.577 24.3351C198.162 24.459 197.746 24.6035 197.33 24.7686C197.954 25.0988 198.598 25.5323 199.263 26.0689C200.718 27.2661 201.986 28.6284 203.067 30.1557C204.148 31.6419 205.104 33.2312 205.935 34.9237C206.392 35.8732 206.85 36.8433 207.307 37.834C207.806 38.8247 208.076 39.8568 208.117 40.9301C208.159 42.2511 207.743 43.3863 206.87 44.3358C206.039 45.2439 205.062 45.9457 203.94 46.4411C200.947 47.7208 197.892 48.4639 194.774 48.6703C191.698 48.9179 188.559 48.8973 185.359 48.6083C184.818 48.8973 184.236 49.0005 183.613 48.9179C182.989 48.8767 182.511 48.5877 182.179 48.051C181.805 47.8446 181.493 47.5763 181.243 47.2461C180.994 46.8745 180.869 46.4411 180.869 45.9457C180.869 45.6567 180.911 45.3884 180.994 45.1407C181.119 44.8518 181.264 44.6041 181.431 44.3977C181.389 43.118 181.472 41.8589 181.68 40.6205C181.888 39.3408 182.096 38.0611 182.303 36.7813C182.594 35.1301 182.761 33.4789 182.802 31.8276C182.885 30.1351 182.969 28.4632 183.052 26.812L182.989 26.7501ZM188.975 6.50175C188.892 8.97861 188.788 11.4761 188.663 13.9942C188.58 16.4711 188.476 18.948 188.352 21.4248C189.931 21.2597 191.511 21.0327 193.09 20.7437C194.712 20.4134 196.25 19.9593 197.705 19.3814C198.286 19.175 198.931 18.8654 199.637 18.4526C200.386 18.0398 200.947 17.6683 201.321 17.338C201.903 16.7601 202.339 16.2647 202.63 15.8519C202.963 15.4391 203.316 14.8199 203.69 13.9942C203.607 14.1181 203.586 14.0768 203.628 13.8704C203.711 13.664 203.774 13.4782 203.815 13.3131C203.815 13.2718 203.815 13.1893 203.815 13.0654C203.857 12.9003 203.877 12.7558 203.877 12.632C203.753 12.2192 203.649 11.9508 203.566 11.827C203.524 11.7032 203.462 11.6 203.379 11.5174C203.379 11.4761 203.296 11.3729 203.129 11.2078C203.005 11.0427 202.901 10.9395 202.817 10.8982C202.61 10.6918 202.381 10.506 202.132 10.3409C201.799 10.1345 201.425 9.92807 201.009 9.72167C200.635 9.47398 200.282 9.28822 199.949 9.16437C198.203 8.4626 196.395 7.90531 194.525 7.4925C192.696 7.07969 190.846 6.74944 188.975 6.50175ZM187.354 36.7194C187.146 37.8753 186.918 39.0518 186.668 40.2489C186.46 41.4048 186.356 42.5813 186.356 43.7785C188.892 43.9849 191.407 44.0262 193.901 43.9023C196.437 43.7372 198.91 43.1799 201.321 42.2304C201.82 42.0653 202.319 41.8176 202.817 41.4874C203.025 41.0746 203.088 40.7856 203.005 40.6205C202.797 39.96 202.547 39.3408 202.256 38.7628C202.007 38.1436 201.695 37.4831 201.321 36.7813C200.988 36.0796 200.635 35.4191 200.261 34.7999C199.887 34.1394 199.471 33.4995 199.014 32.8803L198.39 32.1372L197.642 31.2084C197.351 30.9194 197.019 30.6305 196.645 30.3415C196.312 30.0113 196.042 29.7842 195.834 29.6604C194.628 28.7935 193.381 28.133 192.093 27.6789C190.804 27.2248 189.453 26.9358 188.04 26.812C187.957 28.4632 187.874 30.1145 187.79 31.7657C187.749 33.4169 187.603 35.0682 187.354 36.7194Z" fill="#DA2864"/>
<path d="M214.852 24.5828C215.641 23.5095 216.577 22.56 217.657 21.7344C218.78 20.9088 219.964 20.269 221.211 19.8149C222.459 19.3195 223.747 19.0718 225.077 19.0718C226.408 19.0305 227.738 19.2782 229.068 19.8149C230.357 20.3102 231.52 20.9914 232.56 21.8583C233.599 22.6839 234.409 23.7572 234.991 25.0782C235.449 26.0689 235.719 27.1422 235.802 28.2981C235.885 29.454 235.573 30.5066 234.867 31.4561C234.243 32.323 233.474 32.9835 232.56 33.4376C231.687 33.8917 230.731 34.2219 229.691 34.4283C228.694 34.6347 227.655 34.7379 226.574 34.7379C225.535 34.7379 224.537 34.7173 223.581 34.676C222.5 34.6347 221.419 34.5522 220.339 34.4283C219.299 34.3045 218.239 34.1806 217.159 34.0568C217.491 35.9144 218.156 37.5657 219.154 39.0105C220.151 40.4553 221.502 41.5493 223.207 42.2924C223.664 42.4575 224.017 42.5813 224.267 42.6639C224.391 42.7052 224.495 42.7464 224.579 42.7877C224.703 42.7877 224.828 42.7877 224.953 42.7877C225.285 42.829 225.555 42.8703 225.763 42.9116C226.013 42.9116 226.241 42.8909 226.449 42.8496C226.74 42.8084 226.927 42.7877 227.01 42.7877C227.135 42.7464 227.26 42.7052 227.384 42.6639C227.842 42.54 228.237 42.3956 228.569 42.2304C228.943 42.0653 229.38 41.797 229.878 41.4254C230.128 41.219 230.46 40.9094 230.876 40.4966C231.292 40.0838 231.645 39.7123 231.936 39.382C232.352 38.8041 232.851 38.4119 233.433 38.2055C234.056 37.9991 234.68 38.0817 235.303 38.4532C235.844 38.7835 236.218 39.2995 236.426 40.0013C236.675 40.6618 236.592 41.281 236.176 41.8589C234.971 43.4689 233.537 44.8518 231.874 46.0076C230.253 47.1222 228.382 47.7208 226.262 47.8034C224.558 47.8859 222.916 47.597 221.336 46.9365C219.757 46.2347 218.364 45.3059 217.159 44.15C215.662 42.7052 214.477 41.0333 213.604 39.1344C212.732 37.2354 212.253 35.2952 212.17 33.3137C211.796 33.0248 211.505 32.6739 211.297 32.2611C211.131 31.807 211.069 31.3529 211.11 30.8988C211.193 30.4447 211.36 30.0319 211.609 29.6604C211.859 29.2476 212.233 28.9792 212.732 28.8554C213.189 27.328 213.895 25.9038 214.852 24.5828ZM229.816 26.0689C229.359 25.491 228.652 24.975 227.696 24.5209C226.906 24.1906 225.971 24.0255 224.89 24.0255C223.851 24.0255 222.957 24.2113 222.209 24.5828C221.253 25.0369 220.401 25.6768 219.653 26.5024C218.904 27.2867 218.302 28.1743 217.844 29.165C218.842 29.2888 219.84 29.4127 220.837 29.5365C221.835 29.6604 222.833 29.7429 223.83 29.7842C224.371 29.7842 224.911 29.7842 225.451 29.7842C225.992 29.7842 226.532 29.7636 227.073 29.7223C227.239 29.7223 227.384 29.7223 227.509 29.7223C227.675 29.681 227.842 29.6604 228.008 29.6604C228.382 29.5778 228.652 29.5365 228.818 29.5365C229.026 29.4953 229.234 29.4333 229.442 29.3508C229.608 29.3095 229.816 29.2476 230.066 29.165C230.273 29.0824 230.398 29.0205 230.44 28.9792C230.481 28.938 230.544 28.8967 230.627 28.8554L230.814 28.1123C230.731 27.9472 230.668 27.8027 230.627 27.6789C230.627 27.5138 230.585 27.3693 230.502 27.2454C230.46 27.1216 230.357 26.9358 230.19 26.6881C230.066 26.4405 229.941 26.2341 229.816 26.0689Z" fill="#DA2864"/>
<path d="M272.839 31.6419C271.842 30.6098 270.782 29.6604 269.659 28.7935C268.537 27.8853 267.415 26.9978 266.292 26.1309C265.212 25.2227 264.152 24.2938 263.112 23.3444C262.073 22.3536 261.117 21.2803 260.244 20.1245C259.33 18.9273 258.602 17.627 258.062 16.2234C257.563 14.7786 257.48 13.2925 257.812 11.7651C258.145 10.1138 258.956 8.669 260.244 7.43057C261.533 6.19215 262.925 5.22204 264.422 4.52027C266.043 3.81849 267.685 3.34376 269.348 3.09607C271.01 2.80711 272.694 2.64198 274.398 2.6007C276.103 2.51814 277.807 2.51814 279.511 2.6007C281.257 2.64198 282.982 2.62134 284.686 2.53878C285.476 2.4975 286.058 2.72454 286.432 3.21992C286.848 3.71529 287.056 4.27258 287.056 4.89179C287.056 5.51101 286.848 6.08894 286.432 6.6256C286.058 7.12097 285.476 7.38929 284.686 7.43057C283.481 7.51314 282.275 7.55442 281.07 7.55442C279.906 7.51314 278.721 7.47186 277.516 7.43057C275.895 7.38929 274.253 7.40993 272.59 7.4925C270.969 7.57506 269.368 7.90531 267.789 8.48324C267.249 8.68964 266.667 8.95797 266.043 9.28822C265.419 9.57718 264.838 9.94871 264.297 10.4028C263.798 10.8569 263.383 11.3523 263.05 11.8889C262.718 12.4256 262.572 13.0035 262.614 13.6227C262.655 14.2007 262.801 14.7786 263.05 15.3565C263.299 15.8932 263.611 16.4298 263.985 16.9665C264.401 17.5031 264.838 18.0191 265.295 18.5145C265.752 19.0099 266.189 19.464 266.604 19.8768C267.56 20.8262 268.558 21.6931 269.597 22.4775C270.636 23.2618 271.676 24.0668 272.715 24.8924C273.796 25.7593 274.876 26.7294 275.957 27.8027C277.079 28.8348 278.035 29.97 278.825 31.2084C279.657 32.4056 280.259 33.6853 280.634 35.0475C281.049 36.4098 281.112 37.8546 280.821 39.382C280.53 40.8269 279.968 42.0653 279.137 43.0973C278.347 44.0881 277.391 44.9963 276.269 45.8219C275.188 46.6062 274.024 47.3286 272.777 47.9891C271.572 48.6083 270.408 49.2482 269.285 49.9087C268.579 50.3215 267.914 50.4041 267.29 50.1564C266.708 49.9087 266.251 49.5165 265.918 48.9799C265.627 48.4432 265.503 47.8653 265.544 47.2461C265.627 46.5856 266.022 46.0489 266.729 45.6361C267.727 45.0582 268.724 44.5215 269.722 44.0262C270.719 43.5308 271.696 42.9735 272.652 42.3543C273.567 41.7763 274.357 41.0952 275.022 40.3109C275.728 39.4852 276.082 38.5358 276.082 37.4625C276.04 36.3892 275.687 35.3571 275.022 34.3664C274.398 33.3757 273.671 32.4675 272.839 31.6419Z" fill="#DA2864"/>
<path d="M287.118 47.9891C287.451 46.0076 287.825 44.0674 288.241 42.1685C288.698 40.2283 289.03 38.2675 289.238 36.286C289.404 34.3458 289.425 32.4468 289.301 30.5892C289.217 28.6903 289.342 26.7707 289.675 24.8305C289.758 24.17 290.132 23.6746 290.797 23.3444C291.504 23.0141 292.148 22.9316 292.73 23.0967C293.437 23.3031 293.915 23.6953 294.164 24.2732C294.455 24.8511 294.559 25.4704 294.476 26.1309C294.31 27.0803 294.226 28.0504 294.226 29.0412C294.268 30.0319 294.31 31.0226 294.351 32.0134C294.351 33.9123 294.226 35.8112 293.977 37.7102C293.728 39.6917 293.395 41.6319 292.979 43.5308C292.605 45.4297 292.252 47.3493 291.919 49.2895C291.795 49.95 291.4 50.4453 290.735 50.7756C290.07 51.1058 289.446 51.1884 288.864 51.0233C288.157 50.8169 287.659 50.4247 287.368 49.8468C287.077 49.2688 286.993 48.6496 287.118 47.9891ZM290.111 19.5053C289.82 19.4227 289.529 19.2989 289.238 19.1337C288.947 18.9273 288.739 18.6796 288.615 18.3907C288.49 18.0604 288.386 17.7715 288.303 17.5238C288.22 17.2761 288.178 16.9871 288.178 16.6569C288.178 16.2853 288.241 15.9138 288.365 15.5423C288.532 14.7992 288.864 14.2626 289.363 13.9323C289.529 13.6846 289.758 13.4989 290.049 13.375C290.506 13.0861 291.026 12.9416 291.608 12.9416C292.19 12.9003 292.709 13.0448 293.166 13.375C293.374 13.5402 293.582 13.7259 293.79 13.9323C293.998 14.0975 294.164 14.3245 294.289 14.6135C294.372 14.8199 294.455 15.0469 294.538 15.2946C294.663 15.5423 294.704 15.79 294.663 16.0377C294.621 16.3266 294.58 16.5949 294.538 16.8426C294.497 17.0903 294.393 17.3174 294.226 17.5238C294.019 17.8127 293.852 18.0191 293.728 18.143C293.603 18.2668 293.395 18.432 293.104 18.6384C292.938 18.8035 292.688 18.9273 292.356 19.0099C291.483 19.5053 290.735 19.6704 290.111 19.5053Z" fill="#DA2864"/>
<path d="M305.2 0C305.949 0 306.531 0.247686 306.946 0.743057C307.362 1.23843 307.611 1.81636 307.695 2.47686C308.11 6.39855 308.339 10.3202 308.38 14.2419C308.422 18.1636 308.36 22.0853 308.193 26.007C308.069 29.9287 307.861 33.8504 307.57 37.7721C307.279 41.6938 306.988 45.5948 306.697 49.4752C306.614 50.177 306.344 50.7549 305.886 51.209C305.471 51.7044 304.909 51.9521 304.203 51.9521C303.579 51.9521 302.997 51.7044 302.457 51.209C301.917 50.7549 301.667 50.177 301.709 49.4752C302 45.5948 302.291 41.6938 302.582 37.7721C302.914 33.8504 303.143 29.9287 303.268 26.007C303.434 22.0853 303.496 18.1636 303.455 14.2419C303.413 10.3202 303.184 6.39855 302.769 2.47686C302.686 1.81636 302.914 1.23843 303.455 0.743057C303.995 0.247686 304.577 0 305.2 0Z" fill="#DA2864"/>
<path d="M316.611 24.5828C317.401 23.5095 318.336 22.56 319.417 21.7344C320.539 20.9088 321.724 20.269 322.971 19.8149C324.218 19.3195 325.507 19.0718 326.837 19.0718C328.167 19.0305 329.497 19.2782 330.827 19.8149C332.116 20.3102 333.28 20.9914 334.319 21.8583C335.358 22.6839 336.169 23.7572 336.751 25.0782C337.208 26.0689 337.478 27.1422 337.561 28.2981C337.645 29.454 337.333 30.5066 336.626 31.4561C336.003 32.323 335.234 32.9835 334.319 33.4376C333.446 33.8917 332.49 34.2219 331.451 34.4283C330.453 34.6347 329.414 34.7379 328.333 34.7379C327.294 34.7379 326.296 34.7173 325.34 34.676C324.26 34.6347 323.179 34.5522 322.098 34.4283C321.059 34.3045 319.999 34.1806 318.918 34.0568C319.251 35.9144 319.916 37.5657 320.913 39.0105C321.911 40.4553 323.262 41.5493 324.966 42.2924C325.423 42.4575 325.777 42.5813 326.026 42.6639C326.151 42.7052 326.255 42.7464 326.338 42.7877C326.463 42.7877 326.587 42.7877 326.712 42.7877C327.045 42.829 327.315 42.8703 327.523 42.9116C327.772 42.9116 328.001 42.8909 328.209 42.8496C328.5 42.8084 328.687 42.7877 328.77 42.7877C328.894 42.7464 329.019 42.7052 329.144 42.6639C329.601 42.54 329.996 42.3956 330.329 42.2304C330.703 42.0653 331.139 41.797 331.638 41.4254C331.887 41.219 332.22 40.9094 332.636 40.4966C333.051 40.0838 333.405 39.7123 333.696 39.382C334.111 38.8041 334.61 38.4119 335.192 38.2055C335.816 37.9991 336.439 38.0817 337.063 38.4532C337.603 38.7835 337.977 39.2995 338.185 40.0013C338.434 40.6618 338.351 41.281 337.936 41.8589C336.73 43.4689 335.296 44.8518 333.633 46.0076C332.012 47.1222 330.142 47.7208 328.022 47.8034C326.317 47.8859 324.675 47.597 323.096 46.9365C321.516 46.2347 320.124 45.3059 318.918 44.15C317.422 42.7052 316.237 41.0333 315.364 39.1344C314.491 37.2354 314.013 35.2952 313.93 33.3137C313.556 33.0248 313.265 32.6739 313.057 32.2611C312.891 31.807 312.828 31.3529 312.87 30.8988C312.953 30.4447 313.119 30.0319 313.369 29.6604C313.618 29.2476 313.992 28.9792 314.491 28.8554C314.948 27.328 315.655 25.9038 316.611 24.5828ZM331.576 26.0689C331.118 25.491 330.412 24.975 329.456 24.5209C328.666 24.1906 327.731 24.0255 326.65 24.0255C325.611 24.0255 324.717 24.2113 323.969 24.5828C323.013 25.0369 322.16 25.6768 321.412 26.5024C320.664 27.2867 320.061 28.1743 319.604 29.165C320.602 29.2888 321.599 29.4127 322.597 29.5365C323.594 29.6604 324.592 29.7429 325.59 29.7842C326.13 29.7842 326.671 29.7842 327.211 29.7842C327.751 29.7842 328.292 29.7636 328.832 29.7223C328.998 29.7223 329.144 29.7223 329.269 29.7223C329.435 29.681 329.601 29.6604 329.767 29.6604C330.142 29.5778 330.412 29.5365 330.578 29.5365C330.786 29.4953 330.994 29.4333 331.201 29.3508C331.368 29.3095 331.576 29.2476 331.825 29.165C332.033 29.0824 332.158 29.0205 332.199 28.9792C332.241 28.938 332.303 28.8967 332.386 28.8554L332.573 28.1123C332.49 27.9472 332.428 27.8027 332.386 27.6789C332.386 27.5138 332.345 27.3693 332.261 27.2454C332.22 27.1216 332.116 26.9358 331.95 26.6881C331.825 26.4405 331.7 26.2341 331.576 26.0689Z" fill="#DA2864"/>
<path d="M343.173 42.6639C343.173 40.8888 343.298 39.0931 343.547 37.2767C343.838 35.0888 344.129 32.9216 344.42 30.775C344.711 28.5871 344.836 26.3785 344.794 24.1494C344.794 23.365 345.044 22.7665 345.543 22.3536C346.041 21.9408 346.603 21.7344 347.226 21.7344C347.85 21.7344 348.432 21.9408 348.972 22.3536C349.512 22.7665 349.783 23.365 349.783 24.1494C351.404 24.0255 352.942 23.9636 354.397 23.9636C356.059 24.0049 357.473 24.4796 358.637 25.3878C359.801 26.296 360.673 27.5138 361.255 29.0412C361.754 30.4447 362.045 31.8895 362.128 33.3757C362.212 34.8618 362.274 36.3479 362.315 37.834C362.357 39.9393 362.419 42.0447 362.503 44.15C362.586 46.214 362.627 48.2987 362.627 50.4041C362.627 51.2297 362.357 51.8283 361.817 52.1998C361.318 52.6126 360.757 52.819 360.133 52.819C359.551 52.819 358.99 52.6126 358.45 52.1998C357.951 51.8283 357.701 51.2297 357.701 50.4041C357.701 48.4226 357.66 46.4824 357.577 44.5834C357.535 42.6845 357.473 40.7443 357.39 38.7628C357.306 37.6895 357.265 36.5956 357.265 35.481C357.306 34.3251 357.223 33.2725 357.015 32.323C356.891 31.7451 356.766 31.2497 356.641 30.8369C356.517 30.3828 356.288 29.9493 355.955 29.5365C355.872 29.3714 355.685 29.2269 355.394 29.1031C355.145 28.9792 354.916 28.9173 354.708 28.9173C354.085 28.9173 353.503 28.9586 352.963 29.0412C352.422 29.1237 351.861 29.2476 351.279 29.4127C351.03 29.4953 350.78 29.5778 350.531 29.6604C350.281 29.7429 350.053 29.8461 349.845 29.97C349.429 31.4561 349.117 32.8803 348.91 34.2426C348.743 35.5636 348.577 36.9052 348.411 38.2675C348.286 39.2582 348.203 40.2696 348.161 41.3016C348.161 42.2924 348.12 43.2831 348.037 44.2738C347.995 45.2646 347.87 46.2553 347.663 47.2461C347.496 48.2368 347.185 49.1863 346.727 50.0945C346.353 50.7962 345.854 51.1884 345.231 51.271C344.607 51.3948 344.025 51.2916 343.485 50.9614C342.986 50.6724 342.591 50.2183 342.3 49.5991C342.051 48.9799 342.092 48.3194 342.425 47.6176C342.799 46.8745 343.007 46.0696 343.048 45.2027C343.09 44.3358 343.132 43.4895 343.173 42.6639Z" fill="#DA2864"/>
<path d="M387.631 26.9978C388.42 26.9978 389.002 27.2454 389.376 27.7408C389.792 28.2362 390 28.7935 390 29.4127C390 30.0319 389.792 30.6098 389.376 31.1465C389.002 31.6419 388.42 31.8895 387.631 31.8895C386.633 31.9308 385.635 31.9308 384.638 31.8895C383.682 31.807 382.726 31.7244 381.769 31.6419C381.811 34.9031 381.749 38.1643 381.582 41.4254C381.458 44.6866 381.125 47.9272 380.585 51.1471C380.502 51.8489 380.128 52.3649 379.462 52.6952C378.797 53.0254 378.153 53.0873 377.529 52.8809C376.823 52.6745 376.324 52.2823 376.033 51.7044C375.784 51.1678 375.721 50.5485 375.846 49.8468C376.345 46.7094 376.615 43.5721 376.657 40.4347C376.74 37.2974 376.74 34.1394 376.657 30.9607C375.077 30.713 373.477 30.4654 371.855 30.2177C370.234 29.9287 368.634 29.681 367.054 29.4746C366.348 29.392 365.849 29.0205 365.558 28.36C365.225 27.6582 365.142 27.0184 365.308 26.4405C365.516 25.7387 365.911 25.264 366.493 25.0163C367.075 24.7273 367.699 24.6241 368.364 24.7067C369.735 24.9131 371.107 25.1401 372.479 25.3878C373.851 25.5942 375.243 25.8006 376.657 26.007C376.615 25.8006 376.594 25.491 376.594 25.0782C376.594 21.3629 376.573 17.6889 376.532 14.0562C376.532 10.4234 376.719 6.74944 377.093 3.03415C377.176 2.37366 377.426 1.79572 377.841 1.30035C378.298 0.804979 378.88 0.557293 379.587 0.557293C380.211 0.557293 380.793 0.804979 381.333 1.30035C381.915 1.79572 382.164 2.37366 382.081 3.03415C381.666 6.99712 381.458 10.9395 381.458 14.8611C381.499 18.7416 381.562 22.6839 381.645 26.6881C382.642 26.7707 383.64 26.8533 384.638 26.9358C385.635 26.9771 386.633 26.9978 387.631 26.9978Z" fill="#DA2864"/>
<path d="M5.96247 28.391C5.80659 28.8554 5.5208 29.165 5.10512 29.3198C4.71542 29.4488 4.32571 29.4617 3.93601 29.3585C3.57229 29.2553 3.27351 29.0489 3.03969 28.7393C2.83185 28.4039 2.80587 28.004 2.96175 27.5396C3.29949 26.5849 3.59827 25.6432 3.85807 24.7144C4.14385 23.7598 4.40365 22.7923 4.63748 21.8118C4.11787 21.786 3.59827 21.7602 3.07866 21.7344C2.58504 21.7086 2.07842 21.6699 1.55882 21.6183C1.11715 21.5667 0.740437 21.4119 0.428674 21.1539C0.142891 20.8701 0 20.5089 0 20.0703C0 19.6833 0.142891 19.3221 0.428674 18.9867C0.740437 18.6513 1.11715 18.4965 1.55882 18.5223C2.77989 18.6255 4.03993 18.7029 5.33894 18.7545C5.54678 17.7224 5.74164 16.6904 5.9235 15.6584C6.13134 14.6264 6.33918 13.5814 6.54702 12.5236C5.87154 12.5752 5.20904 12.6397 4.55954 12.7171C3.91003 12.7687 3.26052 12.8332 2.61102 12.9106C2.16935 12.9622 1.79264 12.8203 1.48087 12.4849C1.19509 12.1237 1.0522 11.7496 1.0522 11.3626C1.0522 10.8982 1.19509 10.537 1.48087 10.279C1.79264 10.021 2.16935 9.86615 2.61102 9.81455C3.36444 9.71135 4.10488 9.63395 4.83233 9.58235C5.55977 9.53074 6.30021 9.47914 7.05364 9.42754C7.26148 8.21491 7.46932 7.02808 7.67717 5.86706C7.88501 4.68023 8.10584 3.4934 8.33966 2.30657C8.4176 1.86796 8.65143 1.54546 9.04113 1.33905C9.45681 1.13265 9.85951 1.09395 10.2492 1.22295C10.6909 1.35195 11.0026 1.59706 11.1845 1.95827C11.3664 2.31947 11.4053 2.70648 11.3014 3.11929C11.0936 4.15132 10.8987 5.18334 10.7169 6.21537C10.561 7.24739 10.3921 8.27941 10.2102 9.31144C11.0416 9.31144 11.873 9.33724 12.7043 9.38884C13.5617 9.41464 14.419 9.45334 15.2764 9.50494C15.5362 8.39552 15.783 7.28609 16.0168 6.17666C16.2507 5.06724 16.4715 3.94491 16.6793 2.80969C16.7573 2.37108 17.0041 2.04857 17.4198 1.84216C17.8354 1.63576 18.2251 1.59706 18.5889 1.72606C19.0305 1.85506 19.3423 2.10017 19.5242 2.46138C19.706 2.82259 19.758 3.2096 19.68 3.6224C19.4722 4.68023 19.2514 5.72515 19.0175 6.75718C18.8097 7.7892 18.5889 8.82123 18.3551 9.85325C18.9526 9.95645 19.5372 10.0597 20.1087 10.1629C20.6803 10.2403 21.2648 10.3435 21.8624 10.4725C22.356 10.5757 22.6808 10.8079 22.8366 11.1691C22.9925 11.5303 23.0185 11.9044 22.9146 12.2914C22.8107 12.6526 22.5898 12.9622 22.2521 13.2202C21.9403 13.4782 21.5376 13.5556 21.044 13.4524C19.9009 13.2202 18.7707 13.0267 17.6536 12.8719C17.4977 13.5169 17.3418 14.162 17.1859 14.807C17.056 15.4262 16.9131 16.0583 16.7573 16.7033C16.6793 17.0903 16.6014 17.4773 16.5234 17.8643C16.4455 18.2255 16.3676 18.5997 16.2896 18.9867C16.9131 19.0125 17.5237 19.0383 18.1212 19.0641C18.7448 19.0641 19.3553 19.077 19.9528 19.1028C20.4465 19.1286 20.8102 19.3092 21.044 19.6446C21.3038 19.98 21.4337 20.3412 21.4337 20.7282C21.4337 21.1152 21.3038 21.4635 21.044 21.7731C20.8102 22.0827 20.4465 22.2246 19.9528 22.1988C19.2514 22.1472 18.5499 22.1214 17.8484 22.1214C17.147 22.0956 16.4455 22.0698 15.744 22.044C15.5102 23.2567 15.2634 24.4564 15.0036 25.6432C14.7438 26.8042 14.3931 27.9653 13.9514 29.1263C13.7955 29.5133 13.5487 29.81 13.211 30.0164C12.8732 30.2486 12.4835 30.3002 12.0418 30.1712C11.6521 30.068 11.3274 29.8358 11.0676 29.4746C10.8338 29.0876 10.7948 28.6877 10.9507 28.2749C11.3144 27.2687 11.6262 26.2495 11.886 25.2175C12.1458 24.1597 12.3796 23.089 12.5874 22.0053C11.782 21.9795 10.9767 21.9666 10.1713 21.9666C9.39186 21.9666 8.59946 21.9537 7.79408 21.9279C7.53427 23.0116 7.24849 24.0952 6.93673 25.1788C6.65095 26.2366 6.32619 27.3074 5.96247 28.391ZM9.70363 12.4075C9.49578 13.4911 9.28794 14.5748 9.0801 15.6584C8.89824 16.7162 8.70339 17.7869 8.49554 18.8706C9.27495 18.8706 10.0544 18.8835 10.8338 18.9093C11.6132 18.9093 12.3926 18.9222 13.172 18.948C13.2759 18.432 13.3668 17.9288 13.4448 17.4386C13.5487 16.9226 13.6526 16.4066 13.7565 15.8906C13.8864 15.323 14.0163 14.7683 14.1462 14.2265C14.2762 13.6588 14.4061 13.1041 14.536 12.5623C13.7306 12.4849 12.9252 12.4333 12.1198 12.4075C11.3144 12.3817 10.509 12.3817 9.70363 12.4075Z" fill="#DA2864"/>
</svg>
